# Tiled2Unity generated file. Do not modify by hand.
# Wavefront file for 'Test-C_mesh_0001.obj'

# Vertices (Count = 704)
v 0 -48 0
v -48 -48 0
v -48 0 0
v 0 0 0
v -48 -48 0
v -96 -48 0
v -96 0 0
v -48 0 0
v -96 -48 0
v -144 -48 0
v -144 0 0
v -96 0 0
v -144 -48 0
v -192 -48 0
v -192 0 0
v -144 0 0
v -192 -48 0
v -240 -48 0
v -240 0 0
v -192 0 0
v -240 -48 0
v -288 -48 0
v -288 0 0
v -240 0 0
v -288 -48 0
v -336 -48 0
v -336 0 0
v -288 0 0
v -336 -48 0
v -384 -48 0
v -384 0 0
v -336 0 0
v -384 -48 0
v -432 -48 0
v -432 0 0
v -384 0 0
v -432 -48 0
v -480 -48 0
v -480 0 0
v -432 0 0
v -480 -48 0
v -528 -48 0
v -528 0 0
v -480 0 0
v -528 -48 0
v -576 -48 0
v -576 0 0
v -528 0 0
v -576 -48 0
v -624 -48 0
v -624 0 0
v -576 0 0
v -624 -48 0
v -672 -48 0
v -672 0 0
v -624 0 0
v -672 -48 0
v -720 -48 0
v -720 0 0
v -672 0 0
v -720 -48 0
v -768 -48 0
v -768 0 0
v -720 0 0
v -768 -48 0
v -816 -48 0
v -816 0 0
v -768 0 0
v 0 -96 0
v -48 -96 0
v -48 -48 0
v 0 -48 0
v -48 -96 0
v -96 -96 0
v -96 -48 0
v -48 -48 0
v -96 -96 0
v -144 -96 0
v -144 -48 0
v -96 -48 0
v -144 -96 0
v -192 -96 0
v -192 -48 0
v -144 -48 0
v -192 -96 0
v -240 -96 0
v -240 -48 0
v -192 -48 0
v -240 -96 0
v -288 -96 0
v -288 -48 0
v -240 -48 0
v -288 -96 0
v -336 -96 0
v -336 -48 0
v -288 -48 0
v -336 -96 0
v -384 -96 0
v -384 -48 0
v -336 -48 0
v -384 -96 0
v -432 -96 0
v -432 -48 0
v -384 -48 0
v -432 -96 0
v -480 -96 0
v -480 -48 0
v -432 -48 0
v -480 -96 0
v -528 -96 0
v -528 -48 0
v -480 -48 0
v -528 -96 0
v -576 -96 0
v -576 -48 0
v -528 -48 0
v -576 -96 0
v -624 -96 0
v -624 -48 0
v -576 -48 0
v -624 -96 0
v -672 -96 0
v -672 -48 0
v -624 -48 0
v -672 -96 0
v -720 -96 0
v -720 -48 0
v -672 -48 0
v -720 -96 0
v -768 -96 0
v -768 -48 0
v -720 -48 0
v -768 -96 0
v -816 -96 0
v -816 -48 0
v -768 -48 0
v 0 -144 0
v -48 -144 0
v -48 -96 0
v 0 -96 0
v -48 -144 0
v -96 -144 0
v -96 -96 0
v -48 -96 0
v -96 -144 0
v -144 -144 0
v -144 -96 0
v -96 -96 0
v -144 -144 0
v -192 -144 0
v -192 -96 0
v -144 -96 0
v -192 -144 0
v -240 -144 0
v -240 -96 0
v -192 -96 0
v -240 -144 0
v -288 -144 0
v -288 -96 0
v -240 -96 0
v -288 -144 0
v -336 -144 0
v -336 -96 0
v -288 -96 0
v -336 -144 0
v -384 -144 0
v -384 -96 0
v -336 -96 0
v -384 -144 0
v -432 -144 0
v -432 -96 0
v -384 -96 0
v -432 -144 0
v -480 -144 0
v -480 -96 0
v -432 -96 0
v -480 -144 0
v -528 -144 0
v -528 -96 0
v -480 -96 0
v -528 -144 0
v -576 -144 0
v -576 -96 0
v -528 -96 0
v -576 -144 0
v -624 -144 0
v -624 -96 0
v -576 -96 0
v -624 -144 0
v -672 -144 0
v -672 -96 0
v -624 -96 0
v -672 -144 0
v -720 -144 0
v -720 -96 0
v -672 -96 0
v -720 -144 0
v -768 -144 0
v -768 -96 0
v -720 -96 0
v -768 -144 0
v -816 -144 0
v -816 -96 0
v -768 -96 0
v 0 -192 0
v -48 -192 0
v -48 -144 0
v 0 -144 0
v -48 -192 0
v -96 -192 0
v -96 -144 0
v -48 -144 0
v -96 -192 0
v -144 -192 0
v -144 -144 0
v -96 -144 0
v -144 -192 0
v -192 -192 0
v -192 -144 0
v -144 -144 0
v -192 -192 0
v -240 -192 0
v -240 -144 0
v -192 -144 0
v -240 -192 0
v -288 -192 0
v -288 -144 0
v -240 -144 0
v -288 -192 0
v -336 -192 0
v -336 -144 0
v -288 -144 0
v -336 -192 0
v -384 -192 0
v -384 -144 0
v -336 -144 0
v -384 -192 0
v -432 -192 0
v -432 -144 0
v -384 -144 0
v -432 -192 0
v -480 -192 0
v -480 -144 0
v -432 -144 0
v -480 -192 0
v -528 -192 0
v -528 -144 0
v -480 -144 0
v -528 -192 0
v -576 -192 0
v -576 -144 0
v -528 -144 0
v -576 -192 0
v -624 -192 0
v -624 -144 0
v -576 -144 0
v -624 -192 0
v -672 -192 0
v -672 -144 0
v -624 -144 0
v -672 -192 0
v -720 -192 0
v -720 -144 0
v -672 -144 0
v -720 -192 0
v -768 -192 0
v -768 -144 0
v -720 -144 0
v -768 -192 0
v -816 -192 0
v -816 -144 0
v -768 -144 0
v 0 -240 0
v -48 -240 0
v -48 -192 0
v 0 -192 0
v -48 -240 0
v -96 -240 0
v -96 -192 0
v -48 -192 0
v -96 -240 0
v -144 -240 0
v -144 -192 0
v -96 -192 0
v -144 -240 0
v -192 -240 0
v -192 -192 0
v -144 -192 0
v -192 -240 0
v -240 -240 0
v -240 -192 0
v -192 -192 0
v -240 -240 0
v -288 -240 0
v -288 -192 0
v -240 -192 0
v -288 -240 0
v -336 -240 0
v -336 -192 0
v -288 -192 0
v -336 -240 0
v -384 -240 0
v -384 -192 0
v -336 -192 0
v -384 -240 0
v -432 -240 0
v -432 -192 0
v -384 -192 0
v -432 -240 0
v -480 -240 0
v -480 -192 0
v -432 -192 0
v -480 -240 0
v -528 -240 0
v -528 -192 0
v -480 -192 0
v -528 -240 0
v -576 -240 0
v -576 -192 0
v -528 -192 0
v -576 -240 0
v -624 -240 0
v -624 -192 0
v -576 -192 0
v -624 -240 0
v -672 -240 0
v -672 -192 0
v -624 -192 0
v -672 -240 0
v -720 -240 0
v -720 -192 0
v -672 -192 0
v -720 -240 0
v -768 -240 0
v -768 -192 0
v -720 -192 0
v -768 -240 0
v -816 -240 0
v -816 -192 0
v -768 -192 0
v 0 -288 0
v -48 -288 0
v -48 -240 0
v 0 -240 0
v -48 -288 0
v -96 -288 0
v -96 -240 0
v -48 -240 0
v -96 -288 0
v -144 -288 0
v -144 -240 0
v -96 -240 0
v -144 -288 0
v -192 -288 0
v -192 -240 0
v -144 -240 0
v -192 -288 0
v -240 -288 0
v -240 -240 0
v -192 -240 0
v -240 -288 0
v -288 -288 0
v -288 -240 0
v -240 -240 0
v -288 -288 0
v -336 -288 0
v -336 -240 0
v -288 -240 0
v -336 -288 0
v -384 -288 0
v -384 -240 0
v -336 -240 0
v -384 -288 0
v -432 -288 0
v -432 -240 0
v -384 -240 0
v -432 -288 0
v -480 -288 0
v -480 -240 0
v -432 -240 0
v -480 -288 0
v -528 -288 0
v -528 -240 0
v -480 -240 0
v -528 -288 0
v -576 -288 0
v -576 -240 0
v -528 -240 0
v -576 -288 0
v -624 -288 0
v -624 -240 0
v -576 -240 0
v -624 -288 0
v -672 -288 0
v -672 -240 0
v -624 -240 0
v -672 -288 0
v -720 -288 0
v -720 -240 0
v -672 -240 0
v -720 -288 0
v -768 -288 0
v -768 -240 0
v -720 -240 0
v -768 -288 0
v -816 -288 0
v -816 -240 0
v -768 -240 0
v 0 -336 0
v -48 -336 0
v -48 -288 0
v 0 -288 0
v -48 -336 0
v -96 -336 0
v -96 -288 0
v -48 -288 0
v -96 -336 0
v -144 -336 0
v -144 -288 0
v -96 -288 0
v -144 -336 0
v -192 -336 0
v -192 -288 0
v -144 -288 0
v -192 -336 0
v -240 -336 0
v -240 -288 0
v -192 -288 0
v -240 -336 0
v -288 -336 0
v -288 -288 0
v -240 -288 0
v -288 -336 0
v -336 -336 0
v -336 -288 0
v -288 -288 0
v -336 -336 0
v -384 -336 0
v -384 -288 0
v -336 -288 0
v -384 -336 0
v -432 -336 0
v -432 -288 0
v -384 -288 0
v -432 -336 0
v -480 -336 0
v -480 -288 0
v -432 -288 0
v -480 -336 0
v -528 -336 0
v -528 -288 0
v -480 -288 0
v -528 -336 0
v -576 -336 0
v -576 -288 0
v -528 -288 0
v -576 -336 0
v -624 -336 0
v -624 -288 0
v -576 -288 0
v -624 -336 0
v -672 -336 0
v -672 -288 0
v -624 -288 0
v -672 -336 0
v -720 -336 0
v -720 -288 0
v -672 -288 0
v -720 -336 0
v -768 -336 0
v -768 -288 0
v -720 -288 0
v -768 -336 0
v -816 -336 0
v -816 -288 0
v -768 -288 0
v 0 -384 0
v -48 -384 0
v -48 -336 0
v 0 -336 0
v -48 -384 0
v -96 -384 0
v -96 -336 0
v -48 -336 0
v -96 -384 0
v -144 -384 0
v -144 -336 0
v -96 -336 0
v -144 -384 0
v -192 -384 0
v -192 -336 0
v -144 -336 0
v -192 -384 0
v -240 -384 0
v -240 -336 0
v -192 -336 0
v -240 -384 0
v -288 -384 0
v -288 -336 0
v -240 -336 0
v -288 -384 0
v -336 -384 0
v -336 -336 0
v -288 -336 0
v -336 -384 0
v -384 -384 0
v -384 -336 0
v -336 -336 0
v -384 -384 0
v -432 -384 0
v -432 -336 0
v -384 -336 0
v -432 -384 0
v -480 -384 0
v -480 -336 0
v -432 -336 0
v -480 -384 0
v -528 -384 0
v -528 -336 0
v -480 -336 0
v -528 -384 0
v -576 -384 0
v -576 -336 0
v -528 -336 0
v -576 -384 0
v -624 -384 0
v -624 -336 0
v -576 -336 0
v -624 -384 0
v -672 -384 0
v -672 -336 0
v -624 -336 0
v -672 -384 0
v -720 -384 0
v -720 -336 0
v -672 -336 0
v -720 -384 0
v -768 -384 0
v -768 -336 0
v -720 -336 0
v -768 -384 0
v -816 -384 0
v -816 -336 0
v -768 -336 0
v 0 -432 0
v -48 -432 0
v -48 -384 0
v 0 -384 0
v -48 -432 0
v -96 -432 0
v -96 -384 0
v -48 -384 0
v -96 -432 0
v -144 -432 0
v -144 -384 0
v -96 -384 0
v -144 -432 0
v -192 -432 0
v -192 -384 0
v -144 -384 0
v -192 -432 0
v -240 -432 0
v -240 -384 0
v -192 -384 0
v -240 -432 0
v -288 -432 0
v -288 -384 0
v -240 -384 0
v -288 -432 0
v -336 -432 0
v -336 -384 0
v -288 -384 0
v -336 -432 0
v -384 -432 0
v -384 -384 0
v -336 -384 0
v -384 -432 0
v -432 -432 0
v -432 -384 0
v -384 -384 0
v -432 -432 0
v -480 -432 0
v -480 -384 0
v -432 -384 0
v -480 -432 0
v -528 -432 0
v -528 -384 0
v -480 -384 0
v -528 -432 0
v -576 -432 0
v -576 -384 0
v -528 -384 0
v -576 -432 0
v -624 -432 0
v -624 -384 0
v -576 -384 0
v -624 -432 0
v -672 -432 0
v -672 -384 0
v -624 -384 0
v -672 -432 0
v -720 -432 0
v -720 -384 0
v -672 -384 0
v -720 -432 0
v -768 -432 0
v -768 -384 0
v -720 -384 0
v -768 -432 0
v -816 -432 0
v -816 -384 0
v -768 -384 0
v 0 -480 0
v -48 -480 0
v -48 -432 0
v 0 -432 0
v -48 -480 0
v -96 -480 0
v -96 -432 0
v -48 -432 0
v -96 -480 0
v -144 -480 0
v -144 -432 0
v -96 -432 0
v -144 -480 0
v -192 -480 0
v -192 -432 0
v -144 -432 0
v -192 -480 0
v -240 -480 0
v -240 -432 0
v -192 -432 0
v -240 -480 0
v -288 -480 0
v -288 -432 0
v -240 -432 0
v -288 -480 0
v -336 -480 0
v -336 -432 0
v -288 -432 0
v -336 -480 0
v -384 -480 0
v -384 -432 0
v -336 -432 0
v -384 -480 0
v -432 -480 0
v -432 -432 0
v -384 -432 0
v -432 -480 0
v -480 -480 0
v -480 -432 0
v -432 -432 0
v -480 -480 0
v -528 -480 0
v -528 -432 0
v -480 -432 0
v -528 -480 0
v -576 -480 0
v -576 -432 0
v -528 -432 0
v -576 -480 0
v -624 -480 0
v -624 -432 0
v -576 -432 0
v -624 -480 0
v -672 -480 0
v -672 -432 0
v -624 -432 0
v -672 -480 0
v -720 -480 0
v -720 -432 0
v -672 -432 0
v -720 -480 0
v -768 -480 0
v -768 -432 0
v -720 -432 0
v -768 -480 0
v -816 -480 0
v -816 -432 0
v -768 -432 0
v -336 -528 0
v -384 -528 0
v -384 -480 0
v -336 -480 0
v -384 -528 0
v -432 -528 0
v -432 -480 0
v -384 -480 0
v -432 -528 0
v -480 -528 0
v -480 -480 0
v -432 -480 0
v -336 -576 0
v -384 -576 0
v -384 -528 0
v -336 -528 0
v -384 -576 0
v -432 -576 0
v -432 -528 0
v -384 -528 0
v -432 -576 0
v -480 -576 0
v -480 -528 0
v -432 -528 0

# Texture cooridinates (Count = 28)
vt 0 0.875
vt 0.125 0.875
vt 0.125 0.9375
vt 0 0.9375
vt 0.25 0.875
vt 0.25 0.9375
vt 0.375 0.875
vt 0.375 0.9375
vt 0.5 0.9375
vt 0.5 1
vt 0.375 1
vt 0.625 0.9375
vt 0.625 1
vt 0.75 0.9375
vt 0.75 1
vt 0 0.8125
vt 0.125 0.8125
vt 0.25 0.8125
vt 0.375 0.8125
vt 0 0.75
vt 0.125 0.75
vt 0.25 0.75
vt 0.375 0.75
vt 0.5 0.875
vt 0.625 0.875
vt 0.75 0.875
vt 0.125 1
vt 0 1

# Normal
vn 0 0 -1

# Mesh description
g Test-C_mesh_0001

# Faces
f 1/1/1 2/2/1 3/3/1 4/4/1
f 5/2/1 6/5/1 7/6/1 8/3/1
f 9/2/1 10/5/1 11/6/1 12/3/1
f 13/2/1 14/5/1 15/6/1 16/3/1
f 17/2/1 18/5/1 19/6/1 20/3/1
f 21/2/1 22/5/1 23/6/1 24/3/1
f 25/5/1 26/7/1 27/8/1 28/6/1
f 29/8/1 30/9/1 31/10/1 32/11/1
f 33/9/1 34/12/1 35/13/1 36/10/1
f 37/12/1 38/14/1 39/15/1 40/13/1
f 41/1/1 42/2/1 43/3/1 44/4/1
f 45/2/1 46/5/1 47/6/1 48/3/1
f 49/2/1 50/5/1 51/6/1 52/3/1
f 53/2/1 54/5/1 55/6/1 56/3/1
f 57/2/1 58/5/1 59/6/1 60/3/1
f 61/2/1 62/5/1 63/6/1 64/3/1
f 65/5/1 66/7/1 67/8/1 68/6/1
f 69/16/1 70/17/1 71/2/1 72/1/1
f 73/17/1 74/18/1 75/5/1 76/2/1
f 77/17/1 78/18/1 79/5/1 80/2/1
f 81/17/1 82/18/1 83/5/1 84/2/1
f 85/17/1 86/18/1 87/5/1 88/2/1
f 89/17/1 90/18/1 91/5/1 92/2/1
f 93/18/1 94/19/1 95/7/1 96/5/1
f 97/8/1 98/9/1 99/10/1 100/11/1
f 101/9/1 102/12/1 103/13/1 104/10/1
f 105/12/1 106/14/1 107/15/1 108/13/1
f 109/16/1 110/17/1 111/2/1 112/1/1
f 113/17/1 114/18/1 115/5/1 116/2/1
f 117/17/1 118/18/1 119/5/1 120/2/1
f 121/17/1 122/18/1 123/5/1 124/2/1
f 125/17/1 126/18/1 127/5/1 128/2/1
f 129/17/1 130/18/1 131/5/1 132/2/1
f 133/18/1 134/19/1 135/7/1 136/5/1
f 137/16/1 138/17/1 139/2/1 140/1/1
f 141/17/1 142/18/1 143/5/1 144/2/1
f 145/17/1 146/18/1 147/5/1 148/2/1
f 149/17/1 150/18/1 151/5/1 152/2/1
f 153/17/1 154/18/1 155/5/1 156/2/1
f 157/17/1 158/18/1 159/5/1 160/2/1
f 161/18/1 162/19/1 163/7/1 164/5/1
f 165/8/1 166/9/1 167/10/1 168/11/1
f 169/9/1 170/12/1 171/13/1 172/10/1
f 173/12/1 174/14/1 175/15/1 176/13/1
f 177/16/1 178/17/1 179/2/1 180/1/1
f 181/17/1 182/18/1 183/5/1 184/2/1
f 185/17/1 186/18/1 187/5/1 188/2/1
f 189/17/1 190/18/1 191/5/1 192/2/1
f 193/17/1 194/18/1 195/5/1 196/2/1
f 197/17/1 198/18/1 199/5/1 200/2/1
f 201/18/1 202/19/1 203/7/1 204/5/1
f 205/16/1 206/17/1 207/2/1 208/1/1
f 209/17/1 210/18/1 211/5/1 212/2/1
f 213/17/1 214/18/1 215/5/1 216/2/1
f 217/17/1 218/18/1 219/5/1 220/2/1
f 221/17/1 222/18/1 223/5/1 224/2/1
f 225/17/1 226/18/1 227/5/1 228/2/1
f 229/18/1 230/19/1 231/7/1 232/5/1
f 233/8/1 234/9/1 235/10/1 236/11/1
f 237/9/1 238/12/1 239/13/1 240/10/1
f 241/12/1 242/14/1 243/15/1 244/13/1
f 245/16/1 246/17/1 247/2/1 248/1/1
f 249/17/1 250/18/1 251/5/1 252/2/1
f 253/17/1 254/18/1 255/5/1 256/2/1
f 257/17/1 258/18/1 259/5/1 260/2/1
f 261/17/1 262/18/1 263/5/1 264/2/1
f 265/17/1 266/18/1 267/5/1 268/2/1
f 269/18/1 270/19/1 271/7/1 272/5/1
f 273/16/1 274/17/1 275/2/1 276/1/1
f 277/17/1 278/18/1 279/5/1 280/2/1
f 281/17/1 282/18/1 283/5/1 284/2/1
f 285/17/1 286/18/1 287/5/1 288/2/1
f 289/17/1 290/18/1 291/5/1 292/2/1
f 293/17/1 294/18/1 295/5/1 296/2/1
f 297/18/1 298/19/1 299/7/1 300/5/1
f 301/8/1 302/9/1 303/10/1 304/11/1
f 305/9/1 306/12/1 307/13/1 308/10/1
f 309/12/1 310/14/1 311/15/1 312/13/1
f 313/16/1 314/17/1 315/2/1 316/1/1
f 317/17/1 318/18/1 319/5/1 320/2/1
f 321/17/1 322/18/1 323/5/1 324/2/1
f 325/17/1 326/18/1 327/5/1 328/2/1
f 329/17/1 330/18/1 331/5/1 332/2/1
f 333/17/1 334/18/1 335/5/1 336/2/1
f 337/18/1 338/19/1 339/7/1 340/5/1
f 341/20/1 342/21/1 343/17/1 344/16/1
f 345/21/1 346/22/1 347/18/1 348/17/1
f 349/21/1 350/22/1 351/18/1 352/17/1
f 353/21/1 354/22/1 355/18/1 356/17/1
f 357/21/1 358/22/1 359/18/1 360/17/1
f 361/21/1 362/22/1 363/18/1 364/17/1
f 365/22/1 366/23/1 367/19/1 368/18/1
f 369/7/1 370/24/1 371/9/1 372/8/1
f 373/24/1 374/25/1 375/12/1 376/9/1
f 377/25/1 378/26/1 379/14/1 380/12/1
f 381/20/1 382/21/1 383/17/1 384/16/1
f 385/21/1 386/22/1 387/18/1 388/17/1
f 389/21/1 390/22/1 391/18/1 392/17/1
f 393/21/1 394/22/1 395/18/1 396/17/1
f 397/21/1 398/22/1 399/18/1 400/17/1
f 401/21/1 402/22/1 403/18/1 404/17/1
f 405/22/1 406/23/1 407/19/1 408/18/1
f 409/4/1 410/3/1 411/27/1 412/28/1
f 413/4/1 414/3/1 415/27/1 416/28/1
f 417/4/1 418/3/1 419/27/1 420/28/1
f 421/4/1 422/3/1 423/27/1 424/28/1
f 425/4/1 426/3/1 427/27/1 428/28/1
f 429/4/1 430/3/1 431/27/1 432/28/1
f 433/4/1 434/3/1 435/27/1 436/28/1
f 437/4/1 438/3/1 439/27/1 440/28/1
f 441/4/1 442/3/1 443/27/1 444/28/1
f 445/4/1 446/3/1 447/27/1 448/28/1
f 449/4/1 450/3/1 451/27/1 452/28/1
f 453/4/1 454/3/1 455/27/1 456/28/1
f 457/4/1 458/3/1 459/27/1 460/28/1
f 461/4/1 462/3/1 463/27/1 464/28/1
f 465/4/1 466/3/1 467/27/1 468/28/1
f 469/4/1 470/3/1 471/27/1 472/28/1
f 473/4/1 474/3/1 475/27/1 476/28/1
f 477/4/1 478/3/1 479/27/1 480/28/1
f 481/4/1 482/3/1 483/27/1 484/28/1
f 485/4/1 486/3/1 487/27/1 488/28/1
f 489/4/1 490/3/1 491/27/1 492/28/1
f 493/4/1 494/3/1 495/27/1 496/28/1
f 497/4/1 498/3/1 499/27/1 500/28/1
f 501/4/1 502/3/1 503/27/1 504/28/1
f 505/4/1 506/3/1 507/27/1 508/28/1
f 509/4/1 510/3/1 511/27/1 512/28/1
f 513/4/1 514/3/1 515/27/1 516/28/1
f 517/4/1 518/3/1 519/27/1 520/28/1
f 521/4/1 522/3/1 523/27/1 524/28/1
f 525/4/1 526/3/1 527/27/1 528/28/1
f 529/4/1 530/3/1 531/27/1 532/28/1
f 533/4/1 534/3/1 535/27/1 536/28/1
f 537/4/1 538/3/1 539/27/1 540/28/1
f 541/4/1 542/3/1 543/27/1 544/28/1
f 545/4/1 546/3/1 547/27/1 548/28/1
f 549/4/1 550/3/1 551/27/1 552/28/1
f 553/4/1 554/3/1 555/27/1 556/28/1
f 557/4/1 558/3/1 559/27/1 560/28/1
f 561/4/1 562/3/1 563/27/1 564/28/1
f 565/4/1 566/3/1 567/27/1 568/28/1
f 569/4/1 570/3/1 571/27/1 572/28/1
f 573/4/1 574/3/1 575/27/1 576/28/1
f 577/4/1 578/3/1 579/27/1 580/28/1
f 581/4/1 582/3/1 583/27/1 584/28/1
f 585/4/1 586/3/1 587/27/1 588/28/1
f 589/4/1 590/3/1 591/27/1 592/28/1
f 593/4/1 594/3/1 595/27/1 596/28/1
f 597/4/1 598/3/1 599/27/1 600/28/1
f 601/4/1 602/3/1 603/27/1 604/28/1
f 605/4/1 606/3/1 607/27/1 608/28/1
f 609/4/1 610/3/1 611/27/1 612/28/1
f 613/4/1 614/3/1 615/27/1 616/28/1
f 617/4/1 618/3/1 619/27/1 620/28/1
f 621/4/1 622/3/1 623/27/1 624/28/1
f 625/4/1 626/3/1 627/27/1 628/28/1
f 629/4/1 630/3/1 631/27/1 632/28/1
f 633/4/1 634/3/1 635/27/1 636/28/1
f 637/4/1 638/3/1 639/27/1 640/28/1
f 641/4/1 642/3/1 643/27/1 644/28/1
f 645/4/1 646/3/1 647/27/1 648/28/1
f 649/4/1 650/3/1 651/27/1 652/28/1
f 653/4/1 654/3/1 655/27/1 656/28/1
f 657/4/1 658/3/1 659/27/1 660/28/1
f 661/4/1 662/3/1 663/27/1 664/28/1
f 665/4/1 666/3/1 667/27/1 668/28/1
f 669/4/1 670/3/1 671/27/1 672/28/1
f 673/4/1 674/3/1 675/27/1 676/28/1
f 677/4/1 678/3/1 679/27/1 680/28/1
f 681/4/1 682/3/1 683/27/1 684/28/1
f 685/4/1 686/3/1 687/27/1 688/28/1
f 689/4/1 690/3/1 691/27/1 692/28/1
f 693/4/1 694/3/1 695/27/1 696/28/1
f 697/4/1 698/3/1 699/27/1 700/28/1
f 701/4/1 702/3/1 703/27/1 704/28/1

