# Tiled2Unity generated file. Do not modify by hand.
# Wavefront file for 'Test-A_mesh_0002.obj'

# Vertices (Count = 332)
v -48 -48 0
v -96 -48 0
v -96 0 0
v -48 0 0
v -96 -48 0
v -144 -48 0
v -144 0 0
v -96 0 0
v -144 -48 0
v -192 -48 0
v -192 0 0
v -144 0 0
v -48 -96 0
v -96 -96 0
v -96 -48 0
v -48 -48 0
v -96 -96 0
v -144 -96 0
v -144 -48 0
v -96 -48 0
v -144 -96 0
v -192 -96 0
v -192 -48 0
v -144 -48 0
v -480 -96 0
v -528 -96 0
v -528 -48 0
v -480 -48 0
v -720 -96 0
v -768 -96 0
v -768 -48 0
v -720 -48 0
v -768 -96 0
v -816 -96 0
v -816 -48 0
v -768 -48 0
v -48 -144 0
v -96 -144 0
v -96 -96 0
v -48 -96 0
v -96 -144 0
v -144 -144 0
v -144 -96 0
v -96 -96 0
v -144 -144 0
v -192 -144 0
v -192 -96 0
v -144 -96 0
v -432 -144 0
v -480 -144 0
v -480 -96 0
v -432 -96 0
v -480 -144 0
v -528 -144 0
v -528 -96 0
v -480 -96 0
v -528 -144 0
v -576 -144 0
v -576 -96 0
v -528 -96 0
v -672 -144 0
v -720 -144 0
v -720 -96 0
v -672 -96 0
v -720 -144 0
v -768 -144 0
v -768 -96 0
v -720 -96 0
v -768 -144 0
v -816 -144 0
v -816 -96 0
v -768 -96 0
v -48 -192 0
v -96 -192 0
v -96 -144 0
v -48 -144 0
v -96 -192 0
v -144 -192 0
v -144 -144 0
v -96 -144 0
v -144 -192 0
v -192 -192 0
v -192 -144 0
v -144 -144 0
v -288 -192 0
v -336 -192 0
v -336 -144 0
v -288 -144 0
v -432 -192 0
v -480 -192 0
v -480 -144 0
v -432 -144 0
v -480 -192 0
v -528 -192 0
v -528 -144 0
v -480 -144 0
v -528 -192 0
v -576 -192 0
v -576 -144 0
v -528 -144 0
v -720 -192 0
v -768 -192 0
v -768 -144 0
v -720 -144 0
v -768 -192 0
v -816 -192 0
v -816 -144 0
v -768 -144 0
v -432 -240 0
v -480 -240 0
v -480 -192 0
v -432 -192 0
v -480 -240 0
v -528 -240 0
v -528 -192 0
v -480 -192 0
v -528 -240 0
v -576 -240 0
v -576 -192 0
v -528 -192 0
v -720 -240 0
v -768 -240 0
v -768 -192 0
v -720 -192 0
v -768 -240 0
v -816 -240 0
v -816 -192 0
v -768 -192 0
v -48 -288 0
v -96 -288 0
v -96 -240 0
v -48 -240 0
v -144 -288 0
v -192 -288 0
v -192 -240 0
v -144 -240 0
v -432 -288 0
v -480 -288 0
v -480 -240 0
v -432 -240 0
v -480 -288 0
v -528 -288 0
v -528 -240 0
v -480 -240 0
v -528 -288 0
v -576 -288 0
v -576 -240 0
v -528 -240 0
v -624 -288 0
v -672 -288 0
v -672 -240 0
v -624 -240 0
v -96 -336 0
v -144 -336 0
v -144 -288 0
v -96 -288 0
v -144 -336 0
v -192 -336 0
v -192 -288 0
v -144 -288 0
v -192 -336 0
v -240 -336 0
v -240 -288 0
v -192 -288 0
v -96 -384 0
v -144 -384 0
v -144 -336 0
v -96 -336 0
v -144 -384 0
v -192 -384 0
v -192 -336 0
v -144 -336 0
v -192 -384 0
v -240 -384 0
v -240 -336 0
v -192 -336 0
v -480 -384 0
v -528 -384 0
v -528 -336 0
v -480 -336 0
v -624 -384 0
v -672 -384 0
v -672 -336 0
v -624 -336 0
v -672 -384 0
v -720 -384 0
v -720 -336 0
v -672 -336 0
v -720 -384 0
v -768 -384 0
v -768 -336 0
v -720 -336 0
v 0 -432 0
v -48 -432 0
v -48 -384 0
v 0 -384 0
v -96 -432 0
v -144 -432 0
v -144 -384 0
v -96 -384 0
v -144 -432 0
v -192 -432 0
v -192 -384 0
v -144 -384 0
v -192 -432 0
v -240 -432 0
v -240 -384 0
v -192 -384 0
v -336 -432 0
v -384 -432 0
v -384 -384 0
v -336 -384 0
v -480 -432 0
v -528 -432 0
v -528 -384 0
v -480 -384 0
v -624 -432 0
v -672 -432 0
v -672 -384 0
v -624 -384 0
v -672 -432 0
v -720 -432 0
v -720 -384 0
v -672 -384 0
v -720 -432 0
v -768 -432 0
v -768 -384 0
v -720 -384 0
v -48 -480 0
v -96 -480 0
v -96 -432 0
v -48 -432 0
v -96 -480 0
v -144 -480 0
v -144 -432 0
v -96 -432 0
v -144 -480 0
v -192 -480 0
v -192 -432 0
v -144 -432 0
v -192 -480 0
v -240 -480 0
v -240 -432 0
v -192 -432 0
v -528 -480 0
v -576 -480 0
v -576 -432 0
v -528 -432 0
v -624 -480 0
v -672 -480 0
v -672 -432 0
v -624 -432 0
v -672 -480 0
v -720 -480 0
v -720 -432 0
v -672 -432 0
v -720 -480 0
v -768 -480 0
v -768 -432 0
v -720 -432 0
v 0 -528 0
v -48 -528 0
v -48 -480 0
v 0 -480 0
v -48 -528 0
v -96 -528 0
v -96 -480 0
v -48 -480 0
v -432 -528 0
v -480 -528 0
v -480 -480 0
v -432 -480 0
v -480 -528 0
v -528 -528 0
v -528 -480 0
v -480 -480 0
v -528 -528 0
v -576 -528 0
v -576 -480 0
v -528 -480 0
v -624 -528 0
v -672 -528 0
v -672 -480 0
v -624 -480 0
v -672 -528 0
v -720 -528 0
v -720 -480 0
v -672 -480 0
v -720 -528 0
v -768 -528 0
v -768 -480 0
v -720 -480 0
v 0 -576 0
v -48 -576 0
v -48 -528 0
v 0 -528 0
v -48 -576 0
v -96 -576 0
v -96 -528 0
v -48 -528 0
v -432 -576 0
v -480 -576 0
v -480 -528 0
v -432 -528 0
v -480 -576 0
v -528 -576 0
v -528 -528 0
v -480 -528 0
v -528 -576 0
v -576 -576 0
v -576 -528 0
v -528 -528 0
v 0 -624 0
v -48 -624 0
v -48 -576 0
v 0 -576 0
v -48 -624 0
v -96 -624 0
v -96 -576 0
v -48 -576 0
v -432 -624 0
v -480 -624 0
v -480 -576 0
v -432 -576 0
v -480 -624 0
v -528 -624 0
v -528 -576 0
v -480 -576 0
v -528 -624 0
v -576 -624 0
v -576 -576 0
v -528 -576 0

# Texture cooridinates (Count = 47)
vt 0 0.9375
vt 0.0625 0.9375
vt 0.0625 1
vt 0 1
vt 0.125 0.9375
vt 0.125 1
vt 0.1875 0.9375
vt 0.1875 1
vt 0 0.875
vt 0.0625 0.875
vt 0.125 0.875
vt 0.1875 0.875
vt 0.375 0.5625
vt 0.4375 0.5625
vt 0.4375 0.625
vt 0.375 0.625
vt 0.25 0.9375
vt 0.25 1
vt 0.3125 0.9375
vt 0.3125 1
vt 0 0.8125
vt 0.0625 0.8125
vt 0.125 0.8125
vt 0.1875 0.8125
vt 0.375 0.9375
vt 0.375 1
vt 0.375 0.75
vt 0.4375 0.75
vt 0.4375 0.8125
vt 0.375 0.8125
vt 0.25 0.875
vt 0.3125 0.875
vt 0 0.75
vt 0.0625 0.75
vt 0.125 0.75
vt 0.1875 0.75
vt 0.5 0.875
vt 0.5625 0.875
vt 0.5625 0.9375
vt 0.5 0.9375
vt 0.375 0.875
vt 0.25 0.8125
vt 0.3125 0.8125
vt 0.25 0.75
vt 0.3125 0.75
vt 0.375 0.6875
vt 0.4375 0.6875

# Normal
vn 0 0 -1

# Mesh description
g Test-A_mesh_0002

# Faces
f 1/1/1 2/2/1 3/3/1 4/4/1
f 5/2/1 6/5/1 7/6/1 8/3/1
f 9/5/1 10/7/1 11/8/1 12/6/1
f 13/9/1 14/10/1 15/2/1 16/1/1
f 17/10/1 18/11/1 19/5/1 20/2/1
f 21/11/1 22/12/1 23/7/1 24/5/1
f 25/13/1 26/14/1 27/15/1 28/16/1
f 29/7/1 30/17/1 31/18/1 32/8/1
f 33/17/1 34/19/1 35/20/1 36/18/1
f 37/21/1 38/22/1 39/10/1 40/9/1
f 41/22/1 42/23/1 43/11/1 44/10/1
f 45/23/1 46/24/1 47/12/1 48/11/1
f 49/7/1 50/17/1 51/18/1 52/8/1
f 53/17/1 54/19/1 55/20/1 56/18/1
f 57/19/1 58/25/1 59/26/1 60/20/1
f 61/27/1 62/28/1 63/29/1 64/30/1
f 65/12/1 66/31/1 67/17/1 68/7/1
f 69/31/1 70/32/1 71/19/1 72/17/1
f 73/33/1 74/34/1 75/22/1 76/21/1
f 77/34/1 78/35/1 79/23/1 80/22/1
f 81/35/1 82/36/1 83/24/1 84/23/1
f 85/37/1 86/38/1 87/39/1 88/40/1
f 89/12/1 90/31/1 91/17/1 92/7/1
f 93/31/1 94/32/1 95/19/1 96/17/1
f 97/32/1 98/41/1 99/25/1 100/19/1
f 101/24/1 102/42/1 103/31/1 104/12/1
f 105/42/1 106/43/1 107/32/1 108/31/1
f 109/24/1 110/42/1 111/31/1 112/12/1
f 113/42/1 114/43/1 115/32/1 116/31/1
f 117/43/1 118/30/1 119/41/1 120/32/1
f 121/36/1 122/44/1 123/42/1 124/24/1
f 125/44/1 126/45/1 127/43/1 128/42/1
f 129/46/1 130/47/1 131/28/1 132/27/1
f 133/27/1 134/28/1 135/29/1 136/30/1
f 137/36/1 138/44/1 139/42/1 140/24/1
f 141/44/1 142/45/1 143/43/1 144/42/1
f 145/45/1 146/27/1 147/30/1 148/43/1
f 149/27/1 150/28/1 151/29/1 152/30/1
f 153/7/1 154/17/1 155/18/1 156/8/1
f 157/17/1 158/19/1 159/20/1 160/18/1
f 161/19/1 162/25/1 163/26/1 164/20/1
f 165/12/1 166/31/1 167/17/1 168/7/1
f 169/31/1 170/32/1 171/19/1 172/17/1
f 173/32/1 174/41/1 175/25/1 176/19/1
f 177/13/1 178/14/1 179/15/1 180/16/1
f 181/1/1 182/2/1 183/3/1 184/4/1
f 185/2/1 186/5/1 187/6/1 188/3/1
f 189/46/1 190/47/1 191/28/1 192/27/1
f 193/27/1 194/28/1 195/29/1 196/30/1
f 197/24/1 198/42/1 199/31/1 200/12/1
f 201/42/1 202/43/1 203/32/1 204/31/1
f 205/43/1 206/30/1 207/41/1 208/32/1
f 209/34/1 210/35/1 211/23/1 212/22/1
f 213/46/1 214/47/1 215/28/1 216/27/1
f 217/9/1 218/10/1 219/2/1 220/1/1
f 221/10/1 222/11/1 223/5/1 224/2/1
f 225/11/1 226/12/1 227/7/1 228/5/1
f 229/13/1 230/14/1 231/15/1 232/16/1
f 233/36/1 234/44/1 235/42/1 236/24/1
f 237/44/1 238/45/1 239/43/1 240/42/1
f 241/45/1 242/27/1 243/30/1 244/43/1
f 245/27/1 246/28/1 247/29/1 248/30/1
f 249/21/1 250/22/1 251/10/1 252/9/1
f 253/22/1 254/23/1 255/11/1 256/10/1
f 257/23/1 258/24/1 259/12/1 260/11/1
f 261/17/1 262/19/1 263/20/1 264/18/1
f 265/19/1 266/25/1 267/26/1 268/20/1
f 269/7/1 270/17/1 271/18/1 272/8/1
f 273/17/1 274/19/1 275/20/1 276/18/1
f 277/19/1 278/25/1 279/26/1 280/20/1
f 281/33/1 282/34/1 283/22/1 284/21/1
f 285/34/1 286/35/1 287/23/1 288/22/1
f 289/35/1 290/36/1 291/24/1 292/23/1
f 293/31/1 294/32/1 295/19/1 296/17/1
f 297/32/1 298/41/1 299/25/1 300/19/1
f 301/12/1 302/31/1 303/17/1 304/7/1
f 305/31/1 306/32/1 307/19/1 308/17/1
f 309/32/1 310/41/1 311/25/1 312/19/1
f 313/42/1 314/43/1 315/32/1 316/31/1
f 317/43/1 318/30/1 319/41/1 320/32/1
f 321/24/1 322/42/1 323/31/1 324/12/1
f 325/42/1 326/43/1 327/32/1 328/31/1
f 329/43/1 330/30/1 331/41/1 332/32/1

